<?xml version="1.0" encoding="UTF-8" standalone="no"?>
<!-- Created with Inkscape (http://www.inkscape.org/) -->

<svg
   version="1.1"
   id="svg1"
   width="278.69659"
   height="303.7269"
   viewBox="0 0 278.6966 303.7269"
   sodipodi:docname="TrendyWear logo.svg"
   inkscape:version="1.4 (1:1.4+202410161351+e7c3feb100)"
   xmlns:inkscape="http://www.inkscape.org/namespaces/inkscape"
   xmlns:sodipodi="http://sodipodi.sourceforge.net/DTD/sodipodi-0.dtd"
   xmlns="http://www.w3.org/2000/svg"
   xmlns:svg="http://www.w3.org/2000/svg">
  <defs
     id="defs1" />
  <sodipodi:namedview
     id="namedview1"
     pagecolor="#505050"
     bordercolor="#eeeeee"
     borderopacity="1"
     inkscape:showpageshadow="0"
     inkscape:pageopacity="0"
     inkscape:pagecheckerboard="0"
     inkscape:deskcolor="#505050"
     inkscape:zoom="3.8353471"
     inkscape:cx="159.17725"
     inkscape:cy="124.63018"
     inkscape:window-width="1366"
     inkscape:window-height="699"
     inkscape:window-x="0"
     inkscape:window-y="0"
     inkscape:window-maximized="1"
     inkscape:current-layer="g1">
    <inkscape:page
       x="0"
       y="0"
       inkscape:label="1"
       id="page1"
       width="278.69659"
       height="303.7269"
       margin="0"
       bleed="0" />
  </sodipodi:namedview>
  <g
     id="g1"
     inkscape:groupmode="layer"
     inkscape:label="1"
     transform="translate(-237.78812,-137.66681)">
    <g
       id="g11"
       transform="matrix(0.33166947,0,0,0.33166947,269.04751,171.73754)">
      <path
         id="path3"
         d="m 308.64445,319.48442 39.02666,-66.32533 -20.356,-29.29733 -73.672,32.29466 -23.21333,72.664 32.296,32.29466 20.184,-47.43199 19.176,83.76399 46.72533,-39.53599 -40.16666,-38.42667"
         style="fill:#a8dadc;fill-opacity:1;fill-rule:nonzero;stroke:none;stroke-width:0.133333" />
      <path
         id="path4"
         d="m 374.74844,223.86176 73.672,32.29466 23.21333,72.664 -32.29599,32.29466 -20.184,-47.43199 -19.176,83.76399 -91.84,-77.70933 66.61066,-95.87599"
         style="fill:#1d3557;fill-opacity:1;fill-rule:nonzero;stroke:none;stroke-width:0.133333" />
      <path
         id="path5"
         d="m 330.34311,316.70842 c 0,3.69333 -2.992,6.68667 -6.68533,6.68667 -3.69334,0 -6.68667,-2.99334 -6.68667,-6.68667 0,-3.692 2.99333,-6.68667 6.68667,-6.68667 3.69333,0 6.68533,2.99467 6.68533,6.68667"
         style="fill:#f1faee;fill-opacity:1;fill-rule:nonzero;stroke:none;stroke-width:0.133333" />
      <path
         id="path6"
         d="m 230.42978,328.82042 23.21333,-72.664 29.26667,57.52667 -52.48,15.13733"
         style="fill:#f1faee;fill-opacity:1;fill-rule:nonzero;stroke:none;stroke-width:0.133333" />
      <path
         id="path7"
         d="m 471.63377,328.82042 -23.21333,-72.664 h 0.001 l 23.212,72.664"
         style="fill:#ddceac;fill-opacity:1;fill-rule:nonzero;stroke:none;stroke-width:0.133333" />
      <path
         id="path8"
         d="m 471.63377,328.82042 -52.47866,-15.13733 29.26666,-57.52667 23.212,72.664"
         style="fill:#457b9d;fill-opacity:1;fill-rule:nonzero;stroke:none;stroke-width:0.133333" />
      <path
         id="path9"
         d="m 323.65778,318.04175 h 78.84533 c 0.736,0 1.33333,-0.59733 1.33333,-1.33333 0,-0.736 -0.59733,-1.33333 -1.33333,-1.33333 h -78.84533 c -0.73734,0 -1.33334,0.59733 -1.33334,1.33333 0,0.736 0.596,1.33333 1.33334,1.33333"
         style="fill:#f1faee;fill-opacity:1;fill-rule:nonzero;stroke:none;stroke-width:0.133333" />
    </g>
  </g>
</svg>
